#!OML:ASF E:\acrobat2\Project_11_07_03\Capture day 1\Session 1\Acrobat.ASF
:FULLY-SPECIFIED
:DEGREES
90
root 6.53183 18.2637 -2.94472 3.09552 2.35173 1.65378
lowerback -2.74435 -0.0239227 4.96271
upperback 2.35242 -0.276414 0.522378
thorax 3.95387 -0.00561979 -2.25901
lowerneck 0.640551 -2.3133 -3.21892
upperneck 22.5679 -3.54205 2.89267
head 6.8746 -1.73395 1.28272
rclavicle 5.96354e-016 0
rhumerus -36.4188 -4.3276 -75.9097
rradius 27.8461
rwrist 0.345692
rhand -4.89955 -36.6419
rfingers 7.12502
rthumb 20.8899 -65.5371
lclavicle 5.96354e-016 0
lhumerus -28.7017 -10.698 86.4119
lradius 24.8243
lwrist 13.6903
lhand -10.3362 -16.6019
lfingers 7.12502
lthumb 15.6599 12.7844
rfemur 1.96164 4.55177 19.8986
rtibia 2.46292
rfoot -22.8251 -26.0828
rtoes 10.6191
lfemur -7.50372 3.1639 -10.6032
ltibia 10.1561
lfoot -6.9342 -0.205927
ltoes 33.7845
91
root 6.52988 18.2638 -2.94828 3.11893 2.32713 1.6849
lowerback -2.74848 -0.0399316 4.91069
upperback 2.3526 -0.295881 0.528374
thorax 3.9549 -0.0168251 -2.22487
lowerneck 0.727492 -2.32841 -3.19486
upperneck 22.4791 -3.56483 2.89248
head 6.83089 -1.74428 1.27832
rclavicle -1.68967e-015 5.56597e-015
rhumerus -36.4011 -4.347 -75.8748
rradius 27.9065
rwrist 0.40372
rhand -4.94609 -36.7367
rfingers 7.12502
rthumb 20.8452 -65.6369
lclavicle -1.68967e-015 5.56597e-015
lhumerus -28.7198 -10.5485 86.3357
lradius 24.7281
lwrist 13.5954
lhand -10.3947 -16.4616
lfingers 7.12502
lthumb 15.6035 12.929
rfemur 1.93437 4.58681 19.8665
rtibia 2.43565
rfoot -22.8115 -26.1041
rtoes 10.6721
lfemur -7.48559 3.11397 -10.6367
ltibia 10.0612
lfoot -6.96418 -0.11523
ltoes 33.6367
92
root 6.528 18.2639 -2.95186 3.14039 2.31027 1.73449
lowerback -2.74961 -0.0503441 4.85074
upperback 2.36011 -0.307207 0.524167
thorax 3.96246 -0.0237808 -2.19635
lowerneck 0.76902 -2.35121 -3.14114
upperneck 22.4015 -3.59291 2.86155
head 6.79787 -1.75657 1.25809
rclavicle -1.21259e-014 1.19271e-014
rhumerus -36.3571 -4.44192 -75.8083
rradius 27.9424
rwrist 0.528585
rhand -5.00017 -36.7854
rfingers 7.12502
rthumb 20.7933 -65.6912
lclavicle -1.21259e-014 1.19271e-014
lhumerus -28.7218 -10.4312 86.2653
lradius 24.6436
lwrist 13.5127
lhand -10.4898 -16.3156
lfingers 7.12502
lthumb 15.5119 13.0821
rfemur 1.90796 4.60603 19.8095
rtibia 2.41399
rfoot -22.7972 -26.1188
rtoes 10.7479
lfemur -7.46675 3.06235 -10.6944
ltibia 9.96499
lfoot -6.9925 -0.0316393
ltoes 33.4676
93
root 6.52626 18.2641 -2.95545 3.15898 2.29878 1.78747
lowerback -2.74859 -0.0557983 4.79739
upperback 2.37158 -0.311963 0.513078
thorax 3.97341 -0.0270445 -2.17824
lowerneck 0.748682 -2.37279 -3.08449
upperneck 22.3738 -3.62096 2.84002
head 6.7919 -1.76711 1.23963
rclavicle -1.51076e-014 1.74931e-014
rhumerus -36.3025 -4.58894 -75.7216
rradius 27.9779
rwrist 0.689845
rhand -5.01323 -36.8662
rfingers 7.12502
rthumb 20.7807 -65.7734
lclavicle -1.51076e-014 1.74931e-014
lhumerus -28.7213 -10.3433 86.1968
lradius 24.5786
lwrist 13.4565
lhand -10.6027 -16.1638
lfingers 7.12502
lthumb 15.4032 13.2424
rfemur 1.88294 4.61422 19.7465
rtibia 2.3961
rfoot -22.7801 -26.1262
rtoes 10.8296
lfemur -7.44723 3.02095 -10.7562
ltibia 9.86981
lfoot -7.00759 0.0378966
ltoes 33.3458
94
root 6.52453 18.2643 -2.9592 3.17931 2.28947 1.82694
lowerback -2.74878 -0.0586371 4.75962
upperback 2.38249 -0.314045 0.503608
thorax 3.98465 -0.0285723 -2.16703
lowerneck 0.738498 -2.39124 -2.95106
upperneck 22.3207 -3.63629 2.75367
head 6.77292 -1.77043 1.18814
rclavicle 5.96354e-016 -3.18055e-015
rhumerus -36.2417 -4.7557 -75.6273
rradius 28.0162
rwrist 0.849737
rhand -4.97335 -37.015
rfingers 7.12502
rthumb 20.819 -65.918
lclavicle 5.96354e-016 -3.18055e-015
lhumerus -28.7235 -10.2737 86.131
lradius 24.5289
lwrist 13.4357
lhand -10.7259 -15.9808
lfingers 7.12502
lthumb 15.2845 13.4345
rfemur 1.84937 4.61664 19.6997
rtibia 2.38793
rfoot -22.7565 -26.1289
rtoes 10.8666
lfemur -7.436 2.99801 -10.7994
ltibia 9.78284
lfoot -7.00875 0.0912729
ltoes 33.2581
95
root 6.52269 18.2644 -2.96312 3.20137 2.28239 1.8478
lowerback -2.74952 -0.0611285 4.73745
upperback 2.39158 -0.316552 0.499822
thorax 3.99434 -0.0300246 -2.15869
lowerneck 0.72384 -2.40991 -2.81036
upperneck 22.2707 -3.65106 2.66046
head 6.75544 -1.77338 1.13322
rclavicle 6.95746e-015 3.18055e-015
rhumerus -36.1816 -4.90772 -75.5391
rradius 28.0634
rwrist 0.972784
rhand -4.94928 -37.1461
rfingers 7.12502
rthumb 20.8421 -66.0466
lclavicle 6.95746e-015 3.18055e-015
lhumerus -28.724 -10.2125 86.0685
lradius 24.4788
lwrist 13.4461
lhand -10.8568 -15.7726
lfingers 7.12502
lthumb 15.1585 13.6523
rfemur 1.80415 4.60808 19.6755
rtibia 2.39575
rfoot -22.7236 -26.1251
rtoes 10.8045
lfemur -7.43321 2.99115 -10.8174
ltibia 9.70364
lfoot -6.99621 0.132738
ltoes 33.1669
96
root 6.52074 18.2645 -2.96724 3.22481 2.27618 1.84909
lowerback -2.74713 -0.0661576 4.72823
upperback 2.39567 -0.32297 0.503643
thorax 3.9968 -0.0334147 -2.14996
lowerneck 0.713076 -2.42438 -2.67409
upperneck 22.2331 -3.66167 2.57426
head 6.74136 -1.77419 1.08165
rclavicle -2.61402e-014 1.59028e-015
rhumerus -36.1329 -5.01914 -75.4684
rradius 28.1274
rwrist 1.04719
rhand -4.94798 -37.2535
rfingers 7.12502
rthumb 20.8434 -66.1539
lclavicle -2.61402e-014 1.59028e-015
lhumerus -28.7254 -10.1453 86.0074
lradius 24.4142
lwrist 13.4676
lhand -10.9763 -15.5504
lfingers 7.12502
lthumb 15.0433 13.883
rfemur 1.74725 4.59272 19.6756
rtibia 2.42011
rfoot -22.6873 -26.1153
rtoes 10.6626
lfemur -7.44147 2.9963 -10.8103
ltibia 9.63887
lfoot -6.97353 0.165149
ltoes 33.0684
97
root 6.51861 18.2646 -2.97173 3.25448 2.26998 1.83087
lowerback -2.74289 -0.0741852 4.73358
upperback 2.39183 -0.333922 0.513691
thorax 3.98964 -0.0390826 -2.1432
lowerneck 0.727284 -2.43395 -2.54375
upperneck 22.187 -3.66596 2.49042
head 6.72013 -1.77257 1.03261
rclavicle 3.47873e-015 -1.11319e-014
rhumerus -36.0979 -5.08922 -75.4189
rradius 28.2034
rwrist 1.08257
rhand -4.93451 -37.3681
rfingers 7.12502
rthumb 20.8563 -66.267
lclavicle 3.47873e-015 -1.11319e-014
lhumerus -28.7274 -10.0722 85.9462
lradius 24.3293
lwrist 13.4908
lhand -11.0885 -15.3553
lfingers 7.12502
lthumb 14.9353 14.0862
rfemur 1.6723 4.57442 19.6997
rtibia 2.46147
rfoot -22.6538 -26.1003
rtoes 10.4978
lfemur -7.47095 3.00507 -10.7793
ltibia 9.6001
lfoot -6.95245 0.19081
ltoes 32.9865
98
root 6.51632 18.2646 -2.97646 3.29211 2.26687 1.80593
lowerback -2.74132 -0.0845593 4.74493
upperback 2.38252 -0.348282 0.524472
thorax 3.97807 -0.0464734 -2.13925
lowerneck 0.740113 -2.43856 -2.46555
upperneck 22.1728 -3.67137 2.46003
head 6.71143 -1.77151 1.0095
rclavicle -2.98177e-015 2.38542e-015
rhumerus -36.0741 -5.11262 -75.3949
rradius 28.2869
rwrist 1.05937
rhand -5.09297 -37.2028
rfingers 7.12502
rthumb 20.7041 -66.1184
lclavicle -2.98177e-015 2.38542e-015
lhumerus -28.7293 -9.9996 85.885
lradius 24.2343
lwrist 13.5115
lhand -11.2143 -15.2132
lfingers 7.12502
lthumb 14.814 14.2373
rfemur 1.58213 4.54678 19.7306
rtibia 2.51343
rfoot -22.6222 -26.0808
rtoes 10.3549
lfemur -7.52192 3.00394 -10.7416
ltibia 9.58492
lfoot -6.94239 0.214353
ltoes 32.9522
